<svg xmlns="http://www.w3.org/2000/svg" width="16.622" height="16.623" viewBox="0 0 16.622 16.623">
  <g id="magnifying-glass_1_" data-name="magnifying-glass (1)" transform="translate(-0.001 0)">
    <path id="Path_758" data-name="Path 758" d="M11.1,1.9a6.5,6.5,0,1,0-.889,9.936,1.369,1.369,0,0,0,.372.689l3.693,3.693a1.374,1.374,0,0,0,1.943-1.943l-3.693-3.694a1.374,1.374,0,0,0-.689-.37A6.511,6.511,0,0,0,11.1,1.9ZM9.935,9.935a4.856,4.856,0,1,1,0-6.867A4.861,4.861,0,0,1,9.935,9.935Z" transform="translate(0 0)" fill="#484848"/>
  </g>
</svg>
